<svg class="rich-terminal" viewBox="0 0 1219.0 731.0" xmlns="http://www.w3.org/2000/svg">
    <style>
    .terminal-2732259504-matrix {
        font-family: "DejaVu Sans Mono", Menlo, Consolas, "Liberation Mono", monospace;
        font-size: 20px;
        line-height: 24.4px;
        font-variant-east-asian: full-width;
    }
    .terminal-2732259504-r1 { fill: #c5c8c6 }
.terminal-2732259504-r2 { fill: #e6f1ff;font-weight: bold }
.terminal-2732259504-r3 { fill: #e6edf3 }
.terminal-2732259504-r4 { fill: #e6edf3;font-weight: bold }
.terminal-2732259504-r5 { fill: #e0e0e0 }
.terminal-2732259504-r6 { fill: #8b95a5 }
    </style>
    <defs>
    <clipPath id="terminal-2732259504-clip-terminal">
      <rect x="0" y="0" width="1219.0" height="731.0" />
    </clipPath>
    <clipPath id="terminal-2732259504-line-0">
    <rect x="0" y="1.5" width="1220" height="24.65"/>
            </clipPath>
<clipPath id="terminal-2732259504-line-1">
    <rect x="0" y="25.9" width="1220" height="24.65"/>
            </clipPath>
<clipPath id="terminal-2732259504-line-2">
    <rect x="0" y="50.3" width="1220" height="24.65"/>
            </clipPath>
<clipPath id="terminal-2732259504-line-3">
    <rect x="0" y="74.7" width="1220" height="24.65"/>
            </clipPath>
<clipPath id="terminal-2732259504-line-4">
    <rect x="0" y="99.1" width="1220" height="24.65"/>
            </clipPath>
<clipPath id="terminal-2732259504-line-5">
    <rect x="0" y="123.5" width="1220" height="24.65"/>
            </clipPath>
<clipPath id="terminal-2732259504-line-6">
    <rect x="0" y="147.9" width="1220" height="24.65"/>
            </clipPath>
<clipPath id="terminal-2732259504-line-7">
    <rect x="0" y="172.3" width="1220" height="24.65"/>
            </clipPath>
<clipPath id="terminal-2732259504-line-8">
    <rect x="0" y="196.7" width="1220" height="24.65"/>
            </clipPath>
<clipPath id="terminal-2732259504-line-9">
    <rect x="0" y="221.1" width="1220" height="24.65"/>
            </clipPath>
<clipPath id="terminal-2732259504-line-10">
    <rect x="0" y="245.5" width="1220" height="24.65"/>
            </clipPath>
<clipPath id="terminal-2732259504-line-11">
    <rect x="0" y="269.9" width="1220" height="24.65"/>
            </clipPath>
<clipPath id="terminal-2732259504-line-12">
    <rect x="0" y="294.3" width="1220" height="24.65"/>
            </clipPath>
<clipPath id="terminal-2732259504-line-13">
    <rect x="0" y="318.7" width="1220" height="24.65"/>
            </clipPath>
<clipPath id="terminal-2732259504-line-14">
    <rect x="0" y="343.1" width="1220" height="24.65"/>
            </clipPath>
<clipPath id="terminal-2732259504-line-15">
    <rect x="0" y="367.5" width="1220" height="24.65"/>
            </clipPath>
<clipPath id="terminal-2732259504-line-16">
    <rect x="0" y="391.9" width="1220" height="24.65"/>
            </clipPath>
<clipPath id="terminal-2732259504-line-17">
    <rect x="0" y="416.3" width="1220" height="24.65"/>
            </clipPath>
<clipPath id="terminal-2732259504-line-18">
    <rect x="0" y="440.7" width="1220" height="24.65"/>
            </clipPath>
<clipPath id="terminal-2732259504-line-19">
    <rect x="0" y="465.1" width="1220" height="24.65"/>
            </clipPath>
<clipPath id="terminal-2732259504-line-20">
    <rect x="0" y="489.5" width="1220" height="24.65"/>
            </clipPath>
<clipPath id="terminal-2732259504-line-21">
    <rect x="0" y="513.9" width="1220" height="24.65"/>
            </clipPath>
<clipPath id="terminal-2732259504-line-22">
    <rect x="0" y="538.3" width="1220" height="24.65"/>
            </clipPath>
<clipPath id="terminal-2732259504-line-23">
    <rect x="0" y="562.7" width="1220" height="24.65"/>
            </clipPath>
<clipPath id="terminal-2732259504-line-24">
    <rect x="0" y="587.1" width="1220" height="24.65"/>
            </clipPath>
<clipPath id="terminal-2732259504-line-25">
    <rect x="0" y="611.5" width="1220" height="24.65"/>
            </clipPath>
<clipPath id="terminal-2732259504-line-26">
    <rect x="0" y="635.9" width="1220" height="24.65"/>
            </clipPath>
<clipPath id="terminal-2732259504-line-27">
    <rect x="0" y="660.3" width="1220" height="24.65"/>
            </clipPath>
<clipPath id="terminal-2732259504-line-28">
    <rect x="0" y="684.7" width="1220" height="24.65"/>
            </clipPath>
    </defs>
    <rect fill="#0b0e14" x="0" y="0" width="1219.0" height="731.0" />
    <g clip-path="url(#terminal-2732259504-clip-terminal)">
    <rect fill="#1e3a5f" x="0" y="1.5" width="12.2" height="24.65" shape-rendering="crispEdges"/><rect fill="#1e3a5f" x="12.2" y="1.5" width="134.2" height="24.65" shape-rendering="crispEdges"/><rect fill="#1e3a5f" x="146.4" y="1.5" width="1061.4" height="24.65" shape-rendering="crispEdges"/><rect fill="#1e3a5f" x="1207.8" y="1.5" width="12.2" height="24.65" shape-rendering="crispEdges"/><rect fill="#0b0e14" x="0" y="25.9" width="12.2" height="24.65" shape-rendering="crispEdges"/><rect fill="#0b0e14" x="12.2" y="25.9" width="634.4" height="24.65" shape-rendering="crispEdges"/><rect fill="#0b0e14" x="646.6" y="25.9" width="561.2" height="24.65" shape-rendering="crispEdges"/><rect fill="#0b0e14" x="1207.8" y="25.9" width="12.2" height="24.65" shape-rendering="crispEdges"/><rect fill="#0b0e14" x="0" y="50.3" width="12.2" height="24.65" shape-rendering="crispEdges"/><rect fill="#0b0e14" x="12.2" y="50.3" width="744.2" height="24.65" shape-rendering="crispEdges"/><rect fill="#0b0e14" x="756.4" y="50.3" width="451.4" height="24.65" shape-rendering="crispEdges"/><rect fill="#0b0e14" x="1207.8" y="50.3" width="12.2" height="24.65" shape-rendering="crispEdges"/><rect fill="#0b0e14" x="0" y="74.7" width="12.2" height="24.65" shape-rendering="crispEdges"/><rect fill="#274265" x="12.2" y="74.7" width="61" height="24.65" shape-rendering="crispEdges"/><rect fill="#274265" x="73.2" y="74.7" width="109.8" height="24.65" shape-rendering="crispEdges"/><rect fill="#274265" x="183" y="74.7" width="73.2" height="24.65" shape-rendering="crispEdges"/><rect fill="#274265" x="256.2" y="74.7" width="61" height="24.65" shape-rendering="crispEdges"/><rect fill="#274265" x="317.2" y="74.7" width="97.6" height="24.65" shape-rendering="crispEdges"/><rect fill="#274265" x="414.8" y="74.7" width="73.2" height="24.65" shape-rendering="crispEdges"/><rect fill="#274265" x="488" y="74.7" width="97.6" height="24.65" shape-rendering="crispEdges"/><rect fill="#274265" x="585.6" y="74.7" width="622.2" height="24.65" shape-rendering="crispEdges"/><rect fill="#0b0e14" x="1207.8" y="74.7" width="12.2" height="24.65" shape-rendering="crispEdges"/><rect fill="#0b0e14" x="0" y="99.1" width="12.2" height="24.65" shape-rendering="crispEdges"/><rect fill="#2f3a4a" x="12.2" y="99.1" width="61" height="24.65" shape-rendering="crispEdges"/><rect fill="#2f3a4a" x="73.2" y="99.1" width="109.8" height="24.65" shape-rendering="crispEdges"/><rect fill="#2f3a4a" x="183" y="99.1" width="73.2" height="24.65" shape-rendering="crispEdges"/><rect fill="#2f3a4a" x="256.2" y="99.1" width="61" height="24.65" shape-rendering="crispEdges"/><rect fill="#2f3a4a" x="317.2" y="99.1" width="97.6" height="24.65" shape-rendering="crispEdges"/><rect fill="#2f3a4a" x="414.8" y="99.1" width="73.2" height="24.65" shape-rendering="crispEdges"/><rect fill="#2f3a4a" x="488" y="99.1" width="97.6" height="24.65" shape-rendering="crispEdges"/><rect fill="#2f3a4a" x="585.6" y="99.1" width="622.2" height="24.65" shape-rendering="crispEdges"/><rect fill="#0b0e14" x="1207.8" y="99.1" width="12.2" height="24.65" shape-rendering="crispEdges"/><rect fill="#0b0e14" x="0" y="123.5" width="12.2" height="24.65" shape-rendering="crispEdges"/><rect fill="#15181e" x="12.2" y="123.5" width="61" height="24.65" shape-rendering="crispEdges"/><rect fill="#15181e" x="73.2" y="123.5" width="109.8" height="24.65" shape-rendering="crispEdges"/><rect fill="#15181e" x="183" y="123.5" width="73.2" height="24.65" shape-rendering="crispEdges"/><rect fill="#15181e" x="256.2" y="123.5" width="61" height="24.65" shape-rendering="crispEdges"/><rect fill="#15181e" x="317.2" y="123.5" width="97.6" height="24.65" shape-rendering="crispEdges"/><rect fill="#15181e" x="414.8" y="123.5" width="73.2" height="24.65" shape-rendering="crispEdges"/><rect fill="#15181e" x="488" y="123.5" width="97.6" height="24.65" shape-rendering="crispEdges"/><rect fill="#15181e" x="585.6" y="123.5" width="622.2" height="24.65" shape-rendering="crispEdges"/><rect fill="#0b0e14" x="1207.8" y="123.5" width="12.2" height="24.65" shape-rendering="crispEdges"/><rect fill="#0b0e14" x="0" y="147.9" width="12.2" height="24.65" shape-rendering="crispEdges"/><rect fill="#111317" x="12.2" y="147.9" width="61" height="24.65" shape-rendering="crispEdges"/><rect fill="#111317" x="73.2" y="147.9" width="109.8" height="24.65" shape-rendering="crispEdges"/><rect fill="#111317" x="183" y="147.9" width="73.2" height="24.65" shape-rendering="crispEdges"/><rect fill="#111317" x="256.2" y="147.9" width="61" height="24.65" shape-rendering="crispEdges"/><rect fill="#111317" x="317.2" y="147.9" width="97.6" height="24.65" shape-rendering="crispEdges"/><rect fill="#111317" x="414.8" y="147.9" width="73.2" height="24.65" shape-rendering="crispEdges"/><rect fill="#111317" x="488" y="147.9" width="97.6" height="24.65" shape-rendering="crispEdges"/><rect fill="#111317" x="585.6" y="147.9" width="622.2" height="24.65" shape-rendering="crispEdges"/><rect fill="#0b0e14" x="1207.8" y="147.9" width="12.2" height="24.65" shape-rendering="crispEdges"/><rect fill="#0b0e14" x="0" y="172.3" width="12.2" height="24.65" shape-rendering="crispEdges"/><rect fill="#15181e" x="12.2" y="172.3" width="61" height="24.65" shape-rendering="crispEdges"/><rect fill="#15181e" x="73.2" y="172.3" width="109.8" height="24.65" shape-rendering="crispEdges"/><rect fill="#15181e" x="183" y="172.3" width="73.2" height="24.65" shape-rendering="crispEdges"/><rect fill="#15181e" x="256.2" y="172.3" width="61" height="24.65" shape-rendering="crispEdges"/><rect fill="#15181e" x="317.2" y="172.3" width="97.6" height="24.65" shape-rendering="crispEdges"/><rect fill="#15181e" x="414.8" y="172.3" width="73.2" height="24.65" shape-rendering="crispEdges"/><rect fill="#15181e" x="488" y="172.3" width="97.6" height="24.65" shape-rendering="crispEdges"/><rect fill="#15181e" x="585.6" y="172.3" width="622.2" height="24.65" shape-rendering="crispEdges"/><rect fill="#0b0e14" x="1207.8" y="172.3" width="12.2" height="24.65" shape-rendering="crispEdges"/><rect fill="#0b0e14" x="0" y="196.7" width="12.2" height="24.65" shape-rendering="crispEdges"/><rect fill="#111317" x="12.2" y="196.7" width="61" height="24.65" shape-rendering="crispEdges"/><rect fill="#111317" x="73.2" y="196.7" width="109.8" height="24.65" shape-rendering="crispEdges"/><rect fill="#111317" x="183" y="196.7" width="73.2" height="24.65" shape-rendering="crispEdges"/><rect fill="#111317" x="256.2" y="196.7" width="61" height="24.65" shape-rendering="crispEdges"/><rect fill="#111317" x="317.2" y="196.7" width="97.6" height="24.65" shape-rendering="crispEdges"/><rect fill="#111317" x="414.8" y="196.7" width="73.2" height="24.65" shape-rendering="crispEdges"/><rect fill="#111317" x="488" y="196.7" width="97.6" height="24.65" shape-rendering="crispEdges"/><rect fill="#111317" x="585.6" y="196.7" width="622.2" height="24.65" shape-rendering="crispEdges"/><rect fill="#0b0e14" x="1207.8" y="196.7" width="12.2" height="24.65" shape-rendering="crispEdges"/><rect fill="#0b0e14" x="0" y="221.1" width="12.2" height="24.65" shape-rendering="crispEdges"/><rect fill="#15181e" x="12.2" y="221.1" width="61" height="24.65" shape-rendering="crispEdges"/><rect fill="#15181e" x="73.2" y="221.1" width="109.8" height="24.65" shape-rendering="crispEdges"/><rect fill="#15181e" x="183" y="221.1" width="73.2" height="24.65" shape-rendering="crispEdges"/><rect fill="#15181e" x="256.2" y="221.1" width="61" height="24.65" shape-rendering="crispEdges"/><rect fill="#15181e" x="317.2" y="221.1" width="97.6" height="24.65" shape-rendering="crispEdges"/><rect fill="#15181e" x="414.8" y="221.1" width="73.2" height="24.65" shape-rendering="crispEdges"/><rect fill="#15181e" x="488" y="221.1" width="97.6" height="24.65" shape-rendering="crispEdges"/><rect fill="#15181e" x="585.6" y="221.1" width="622.2" height="24.65" shape-rendering="crispEdges"/><rect fill="#0b0e14" x="1207.8" y="221.1" width="12.2" height="24.65" shape-rendering="crispEdges"/><rect fill="#0b0e14" x="0" y="245.5" width="12.2" height="24.65" shape-rendering="crispEdges"/><rect fill="#111317" x="12.2" y="245.5" width="61" height="24.65" shape-rendering="crispEdges"/><rect fill="#111317" x="73.2" y="245.5" width="109.8" height="24.65" shape-rendering="crispEdges"/><rect fill="#111317" x="183" y="245.5" width="73.2" height="24.65" shape-rendering="crispEdges"/><rect fill="#111317" x="256.2" y="245.5" width="61" height="24.65" shape-rendering="crispEdges"/><rect fill="#111317" x="317.2" y="245.5" width="97.6" height="24.65" shape-rendering="crispEdges"/><rect fill="#111317" x="414.8" y="245.5" width="73.2" height="24.65" shape-rendering="crispEdges"/><rect fill="#111317" x="488" y="245.5" width="97.6" height="24.65" shape-rendering="crispEdges"/><rect fill="#111317" x="585.6" y="245.5" width="622.2" height="24.65" shape-rendering="crispEdges"/><rect fill="#0b0e14" x="1207.8" y="245.5" width="12.2" height="24.65" shape-rendering="crispEdges"/><rect fill="#0b0e14" x="0" y="269.9" width="12.2" height="24.65" shape-rendering="crispEdges"/><rect fill="#15181e" x="12.2" y="269.9" width="61" height="24.65" shape-rendering="crispEdges"/><rect fill="#15181e" x="73.2" y="269.9" width="109.8" height="24.65" shape-rendering="crispEdges"/><rect fill="#15181e" x="183" y="269.9" width="73.2" height="24.65" shape-rendering="crispEdges"/><rect fill="#15181e" x="256.2" y="269.9" width="61" height="24.65" shape-rendering="crispEdges"/><rect fill="#15181e" x="317.2" y="269.9" width="97.6" height="24.65" shape-rendering="crispEdges"/><rect fill="#15181e" x="414.8" y="269.9" width="73.2" height="24.65" shape-rendering="crispEdges"/><rect fill="#15181e" x="488" y="269.9" width="97.6" height="24.65" shape-rendering="crispEdges"/><rect fill="#15181e" x="585.6" y="269.9" width="622.2" height="24.65" shape-rendering="crispEdges"/><rect fill="#0b0e14" x="1207.8" y="269.9" width="12.2" height="24.65" shape-rendering="crispEdges"/><rect fill="#0b0e14" x="0" y="294.3" width="12.2" height="24.65" shape-rendering="crispEdges"/><rect fill="#111317" x="12.2" y="294.3" width="61" height="24.65" shape-rendering="crispEdges"/><rect fill="#111317" x="73.2" y="294.3" width="109.8" height="24.65" shape-rendering="crispEdges"/><rect fill="#111317" x="183" y="294.3" width="73.2" height="24.65" shape-rendering="crispEdges"/><rect fill="#111317" x="256.2" y="294.3" width="61" height="24.65" shape-rendering="crispEdges"/><rect fill="#111317" x="317.2" y="294.3" width="97.6" height="24.65" shape-rendering="crispEdges"/><rect fill="#111317" x="414.8" y="294.3" width="73.2" height="24.65" shape-rendering="crispEdges"/><rect fill="#111317" x="488" y="294.3" width="97.6" height="24.65" shape-rendering="crispEdges"/><rect fill="#111317" x="585.6" y="294.3" width="622.2" height="24.65" shape-rendering="crispEdges"/><rect fill="#0b0e14" x="1207.8" y="294.3" width="12.2" height="24.65" shape-rendering="crispEdges"/><rect fill="#0b0e14" x="0" y="318.7" width="12.2" height="24.65" shape-rendering="crispEdges"/><rect fill="#15181e" x="12.2" y="318.7" width="61" height="24.65" shape-rendering="crispEdges"/><rect fill="#15181e" x="73.2" y="318.7" width="109.8" height="24.65" shape-rendering="crispEdges"/><rect fill="#15181e" x="183" y="318.7" width="73.2" height="24.65" shape-rendering="crispEdges"/><rect fill="#15181e" x="256.2" y="318.7" width="61" height="24.65" shape-rendering="crispEdges"/><rect fill="#15181e" x="317.2" y="318.7" width="97.6" height="24.65" shape-rendering="crispEdges"/><rect fill="#15181e" x="414.8" y="318.7" width="73.2" height="24.65" shape-rendering="crispEdges"/><rect fill="#15181e" x="488" y="318.7" width="97.6" height="24.65" shape-rendering="crispEdges"/><rect fill="#15181e" x="585.6" y="318.7" width="622.2" height="24.65" shape-rendering="crispEdges"/><rect fill="#0b0e14" x="1207.8" y="318.7" width="12.2" height="24.65" shape-rendering="crispEdges"/><rect fill="#0b0e14" x="0" y="343.1" width="12.2" height="24.65" shape-rendering="crispEdges"/><rect fill="#111317" x="12.2" y="343.1" width="61" height="24.65" shape-rendering="crispEdges"/><rect fill="#111317" x="73.2" y="343.1" width="109.8" height="24.65" shape-rendering="crispEdges"/><rect fill="#111317" x="183" y="343.1" width="73.2" height="24.65" shape-rendering="crispEdges"/><rect fill="#111317" x="256.2" y="343.1" width="61" height="24.65" shape-rendering="crispEdges"/><rect fill="#111317" x="317.2" y="343.1" width="97.6" height="24.65" shape-rendering="crispEdges"/><rect fill="#111317" x="414.8" y="343.1" width="73.2" height="24.65" shape-rendering="crispEdges"/><rect fill="#111317" x="488" y="343.1" width="97.6" height="24.65" shape-rendering="crispEdges"/><rect fill="#111317" x="585.6" y="343.1" width="622.2" height="24.65" shape-rendering="crispEdges"/><rect fill="#0b0e14" x="1207.8" y="343.1" width="12.2" height="24.65" shape-rendering="crispEdges"/><rect fill="#0b0e14" x="0" y="367.5" width="12.2" height="24.65" shape-rendering="crispEdges"/><rect fill="#15181e" x="12.2" y="367.5" width="61" height="24.65" shape-rendering="crispEdges"/><rect fill="#15181e" x="73.2" y="367.5" width="109.8" height="24.65" shape-rendering="crispEdges"/><rect fill="#15181e" x="183" y="367.5" width="73.2" height="24.65" shape-rendering="crispEdges"/><rect fill="#15181e" x="256.2" y="367.5" width="61" height="24.65" shape-rendering="crispEdges"/><rect fill="#15181e" x="317.2" y="367.5" width="97.6" height="24.65" shape-rendering="crispEdges"/><rect fill="#15181e" x="414.8" y="367.5" width="73.2" height="24.65" shape-rendering="crispEdges"/><rect fill="#15181e" x="488" y="367.5" width="97.6" height="24.65" shape-rendering="crispEdges"/><rect fill="#15181e" x="585.6" y="367.5" width="622.2" height="24.65" shape-rendering="crispEdges"/><rect fill="#0b0e14" x="1207.8" y="367.5" width="12.2" height="24.65" shape-rendering="crispEdges"/><rect fill="#0b0e14" x="0" y="391.9" width="12.2" height="24.65" shape-rendering="crispEdges"/><rect fill="#111317" x="12.2" y="391.9" width="61" height="24.65" shape-rendering="crispEdges"/><rect fill="#111317" x="73.2" y="391.9" width="109.8" height="24.65" shape-rendering="crispEdges"/><rect fill="#111317" x="183" y="391.9" width="73.2" height="24.65" shape-rendering="crispEdges"/><rect fill="#111317" x="256.2" y="391.9" width="61" height="24.65" shape-rendering="crispEdges"/><rect fill="#111317" x="317.2" y="391.9" width="97.6" height="24.65" shape-rendering="crispEdges"/><rect fill="#111317" x="414.8" y="391.9" width="73.2" height="24.65" shape-rendering="crispEdges"/><rect fill="#111317" x="488" y="391.9" width="97.6" height="24.65" shape-rendering="crispEdges"/><rect fill="#111317" x="585.6" y="391.9" width="622.2" height="24.65" shape-rendering="crispEdges"/><rect fill="#0b0e14" x="1207.8" y="391.9" width="12.2" height="24.65" shape-rendering="crispEdges"/><rect fill="#0b0e14" x="0" y="416.3" width="12.2" height="24.65" shape-rendering="crispEdges"/><rect fill="#15181e" x="12.2" y="416.3" width="61" height="24.65" shape-rendering="crispEdges"/><rect fill="#15181e" x="73.2" y="416.3" width="109.8" height="24.65" shape-rendering="crispEdges"/><rect fill="#15181e" x="183" y="416.3" width="73.2" height="24.65" shape-rendering="crispEdges"/><rect fill="#15181e" x="256.2" y="416.3" width="61" height="24.65" shape-rendering="crispEdges"/><rect fill="#15181e" x="317.2" y="416.3" width="97.6" height="24.65" shape-rendering="crispEdges"/><rect fill="#15181e" x="414.8" y="416.3" width="73.2" height="24.65" shape-rendering="crispEdges"/><rect fill="#15181e" x="488" y="416.3" width="97.6" height="24.65" shape-rendering="crispEdges"/><rect fill="#15181e" x="585.6" y="416.3" width="622.2" height="24.65" shape-rendering="crispEdges"/><rect fill="#0b0e14" x="1207.8" y="416.3" width="12.2" height="24.65" shape-rendering="crispEdges"/><rect fill="#0b0e14" x="0" y="440.7" width="12.2" height="24.65" shape-rendering="crispEdges"/><rect fill="#15181e" x="12.2" y="440.7" width="1195.6" height="24.65" shape-rendering="crispEdges"/><rect fill="#0b0e14" x="1207.8" y="440.7" width="12.2" height="24.65" shape-rendering="crispEdges"/><rect fill="#0b0e14" x="0" y="465.1" width="12.2" height="24.65" shape-rendering="crispEdges"/><rect fill="#15181e" x="12.2" y="465.1" width="1195.6" height="24.65" shape-rendering="crispEdges"/><rect fill="#0b0e14" x="1207.8" y="465.1" width="12.2" height="24.65" shape-rendering="crispEdges"/><rect fill="#0b0e14" x="0" y="489.5" width="12.2" height="24.65" shape-rendering="crispEdges"/><rect fill="#15181e" x="12.2" y="489.5" width="1195.6" height="24.65" shape-rendering="crispEdges"/><rect fill="#0b0e14" x="1207.8" y="489.5" width="12.2" height="24.65" shape-rendering="crispEdges"/><rect fill="#0b0e14" x="0" y="513.9" width="12.2" height="24.65" shape-rendering="crispEdges"/><rect fill="#15181e" x="12.2" y="513.9" width="1195.6" height="24.65" shape-rendering="crispEdges"/><rect fill="#0b0e14" x="1207.8" y="513.9" width="12.2" height="24.65" shape-rendering="crispEdges"/><rect fill="#0b0e14" x="0" y="538.3" width="12.2" height="24.65" shape-rendering="crispEdges"/><rect fill="#15181e" x="12.2" y="538.3" width="1195.6" height="24.65" shape-rendering="crispEdges"/><rect fill="#0b0e14" x="1207.8" y="538.3" width="12.2" height="24.65" shape-rendering="crispEdges"/><rect fill="#0b0e14" x="0" y="562.7" width="12.2" height="24.65" shape-rendering="crispEdges"/><rect fill="#15181e" x="12.2" y="562.7" width="1195.6" height="24.65" shape-rendering="crispEdges"/><rect fill="#0b0e14" x="1207.8" y="562.7" width="12.2" height="24.65" shape-rendering="crispEdges"/><rect fill="#0b0e14" x="0" y="587.1" width="12.2" height="24.65" shape-rendering="crispEdges"/><rect fill="#15181e" x="12.2" y="587.1" width="1195.6" height="24.65" shape-rendering="crispEdges"/><rect fill="#0b0e14" x="1207.8" y="587.1" width="12.2" height="24.65" shape-rendering="crispEdges"/><rect fill="#0b0e14" x="0" y="611.5" width="12.2" height="24.65" shape-rendering="crispEdges"/><rect fill="#15181e" x="12.2" y="611.5" width="1195.6" height="24.65" shape-rendering="crispEdges"/><rect fill="#0b0e14" x="1207.8" y="611.5" width="12.2" height="24.65" shape-rendering="crispEdges"/><rect fill="#0b0e14" x="0" y="635.9" width="12.2" height="24.65" shape-rendering="crispEdges"/><rect fill="#15181e" x="12.2" y="635.9" width="1195.6" height="24.65" shape-rendering="crispEdges"/><rect fill="#0b0e14" x="1207.8" y="635.9" width="12.2" height="24.65" shape-rendering="crispEdges"/><rect fill="#0b0e14" x="0" y="660.3" width="12.2" height="24.65" shape-rendering="crispEdges"/><rect fill="#15181e" x="12.2" y="660.3" width="1195.6" height="24.65" shape-rendering="crispEdges"/><rect fill="#0b0e14" x="1207.8" y="660.3" width="12.2" height="24.65" shape-rendering="crispEdges"/><rect fill="#0b0e14" x="0" y="684.7" width="12.2" height="24.65" shape-rendering="crispEdges"/><rect fill="#15181e" x="12.2" y="684.7" width="1195.6" height="24.65" shape-rendering="crispEdges"/><rect fill="#0b0e14" x="1207.8" y="684.7" width="12.2" height="24.65" shape-rendering="crispEdges"/><rect fill="#0b0e14" x="0" y="709.1" width="12.2" height="24.65" shape-rendering="crispEdges"/><rect fill="#0b0e14" x="12.2" y="709.1" width="109.8" height="24.65" shape-rendering="crispEdges"/><rect fill="#0b0e14" x="122" y="709.1" width="1085.8" height="24.65" shape-rendering="crispEdges"/><rect fill="#0b0e14" x="1207.8" y="709.1" width="12.2" height="24.65" shape-rendering="crispEdges"/>
    <g class="terminal-2732259504-matrix">
    <text class="terminal-2732259504-r2" x="12.2" y="20" textLength="134.2" clip-path="url(#terminal-2732259504-line-0)">GNSS&#160;detail</text><text class="terminal-2732259504-r1" x="1220" y="20" textLength="12.2" clip-path="url(#terminal-2732259504-line-0)">
</text><text class="terminal-2732259504-r3" x="12.2" y="44.4" textLength="634.4" clip-path="url(#terminal-2732259504-line-1)">3D&#160;fix,&#160;9/14&#160;satellites&#160;&#160;&#160;&#160;40.71280,&#160;-74.00600,&#160;12&#160;m</text><text class="terminal-2732259504-r1" x="1220" y="44.4" textLength="12.2" clip-path="url(#terminal-2732259504-line-1)">
</text><text class="terminal-2732259504-r3" x="12.2" y="68.8" textLength="744.2" clip-path="url(#terminal-2732259504-line-2)">receiver&#160;time&#160;2026-09-21T15:13:57.000Z&#160;&#160;&#160;&#160;device&#160;/dev/ttyAMA0</text><text class="terminal-2732259504-r1" x="1220" y="68.8" textLength="12.2" clip-path="url(#terminal-2732259504-line-2)">
</text><text class="terminal-2732259504-r2" x="12.2" y="93.2" textLength="61" clip-path="url(#terminal-2732259504-line-3)">&#160;PRN&#160;</text><text class="terminal-2732259504-r2" x="73.2" y="93.2" textLength="109.8" clip-path="url(#terminal-2732259504-line-3)">&#160;System&#160;&#160;</text><text class="terminal-2732259504-r2" x="183" y="93.2" textLength="73.2" clip-path="url(#terminal-2732259504-line-3)">&#160;Elev&#160;</text><text class="terminal-2732259504-r2" x="256.2" y="93.2" textLength="61" clip-path="url(#terminal-2732259504-line-3)">&#160;Az&#160;&#160;</text><text class="terminal-2732259504-r2" x="317.2" y="93.2" textLength="97.6" clip-path="url(#terminal-2732259504-line-3)">&#160;SNR&#160;dB&#160;</text><text class="terminal-2732259504-r2" x="414.8" y="93.2" textLength="73.2" clip-path="url(#terminal-2732259504-line-3)">&#160;Used&#160;</text><text class="terminal-2732259504-r2" x="488" y="93.2" textLength="97.6" clip-path="url(#terminal-2732259504-line-3)">&#160;Health&#160;</text><text class="terminal-2732259504-r1" x="1220" y="93.2" textLength="12.2" clip-path="url(#terminal-2732259504-line-3)">
</text><text class="terminal-2732259504-r4" x="12.2" y="117.6" textLength="61" clip-path="url(#terminal-2732259504-line-4)">&#160;18&#160;&#160;</text><text class="terminal-2732259504-r4" x="73.2" y="117.6" textLength="109.8" clip-path="url(#terminal-2732259504-line-4)">&#160;GPS&#160;&#160;&#160;&#160;&#160;</text><text class="terminal-2732259504-r4" x="183" y="117.6" textLength="73.2" clip-path="url(#terminal-2732259504-line-4)">&#160;73&#160;&#160;&#160;</text><text class="terminal-2732259504-r4" x="256.2" y="117.6" textLength="61" clip-path="url(#terminal-2732259504-line-4)">&#160;120&#160;</text><text class="terminal-2732259504-r4" x="317.2" y="117.6" textLength="97.6" clip-path="url(#terminal-2732259504-line-4)">&#160;44&#160;&#160;&#160;&#160;&#160;</text><text class="terminal-2732259504-r4" x="414.8" y="117.6" textLength="73.2" clip-path="url(#terminal-2732259504-line-4)">&#160;yes&#160;&#160;</text><text class="terminal-2732259504-r4" x="488" y="117.6" textLength="97.6" clip-path="url(#terminal-2732259504-line-4)">&#160;ok&#160;&#160;&#160;&#160;&#160;</text><text class="terminal-2732259504-r1" x="1220" y="117.6" textLength="12.2" clip-path="url(#terminal-2732259504-line-4)">
</text><text class="terminal-2732259504-r5" x="12.2" y="142" textLength="61" clip-path="url(#terminal-2732259504-line-5)">&#160;5&#160;&#160;&#160;</text><text class="terminal-2732259504-r5" x="73.2" y="142" textLength="109.8" clip-path="url(#terminal-2732259504-line-5)">&#160;GPS&#160;&#160;&#160;&#160;&#160;</text><text class="terminal-2732259504-r5" x="183" y="142" textLength="73.2" clip-path="url(#terminal-2732259504-line-5)">&#160;61&#160;&#160;&#160;</text><text class="terminal-2732259504-r5" x="256.2" y="142" textLength="61" clip-path="url(#terminal-2732259504-line-5)">&#160;210&#160;</text><text class="terminal-2732259504-r5" x="317.2" y="142" textLength="97.6" clip-path="url(#terminal-2732259504-line-5)">&#160;41&#160;&#160;&#160;&#160;&#160;</text><text class="terminal-2732259504-r5" x="414.8" y="142" textLength="73.2" clip-path="url(#terminal-2732259504-line-5)">&#160;yes&#160;&#160;</text><text class="terminal-2732259504-r5" x="488" y="142" textLength="97.6" clip-path="url(#terminal-2732259504-line-5)">&#160;ok&#160;&#160;&#160;&#160;&#160;</text><text class="terminal-2732259504-r1" x="1220" y="142" textLength="12.2" clip-path="url(#terminal-2732259504-line-5)">
</text><text class="terminal-2732259504-r5" x="12.2" y="166.4" textLength="61" clip-path="url(#terminal-2732259504-line-6)">&#160;311&#160;</text><text class="terminal-2732259504-r5" x="73.2" y="166.4" textLength="109.8" clip-path="url(#terminal-2732259504-line-6)">&#160;Galileo&#160;</text><text class="terminal-2732259504-r5" x="183" y="166.4" textLength="73.2" clip-path="url(#terminal-2732259504-line-6)">&#160;66&#160;&#160;&#160;</text><text class="terminal-2732259504-r5" x="256.2" y="166.4" textLength="61" clip-path="url(#terminal-2732259504-line-6)">&#160;30&#160;&#160;</text><text class="terminal-2732259504-r5" x="317.2" y="166.4" textLength="97.6" clip-path="url(#terminal-2732259504-line-6)">&#160;40&#160;&#160;&#160;&#160;&#160;</text><text class="terminal-2732259504-r5" x="414.8" y="166.4" textLength="73.2" clip-path="url(#terminal-2732259504-line-6)">&#160;yes&#160;&#160;</text><text class="terminal-2732259504-r5" x="488" y="166.4" textLength="97.6" clip-path="url(#terminal-2732259504-line-6)">&#160;ok&#160;&#160;&#160;&#160;&#160;</text><text class="terminal-2732259504-r1" x="1220" y="166.4" textLength="12.2" clip-path="url(#terminal-2732259504-line-6)">
</text><text class="terminal-2732259504-r5" x="12.2" y="190.8" textLength="61" clip-path="url(#terminal-2732259504-line-7)">&#160;301&#160;</text><text class="terminal-2732259504-r5" x="73.2" y="190.8" textLength="109.8" clip-path="url(#terminal-2732259504-line-7)">&#160;Galileo&#160;</text><text class="terminal-2732259504-r5" x="183" y="190.8" textLength="73.2" clip-path="url(#terminal-2732259504-line-7)">&#160;55&#160;&#160;&#160;</text><text class="terminal-2732259504-r5" x="256.2" y="190.8" textLength="61" clip-path="url(#terminal-2732259504-line-7)">&#160;250&#160;</text><text class="terminal-2732259504-r5" x="317.2" y="190.8" textLength="97.6" clip-path="url(#terminal-2732259504-line-7)">&#160;39&#160;&#160;&#160;&#160;&#160;</text><text class="terminal-2732259504-r5" x="414.8" y="190.8" textLength="73.2" clip-path="url(#terminal-2732259504-line-7)">&#160;yes&#160;&#160;</text><text class="terminal-2732259504-r5" x="488" y="190.8" textLength="97.6" clip-path="url(#terminal-2732259504-line-7)">&#160;ok&#160;&#160;&#160;&#160;&#160;</text><text class="terminal-2732259504-r1" x="1220" y="190.8" textLength="12.2" clip-path="url(#terminal-2732259504-line-7)">
</text><text class="terminal-2732259504-r5" x="12.2" y="215.2" textLength="61" clip-path="url(#terminal-2732259504-line-8)">&#160;13&#160;&#160;</text><text class="terminal-2732259504-r5" x="73.2" y="215.2" textLength="109.8" clip-path="url(#terminal-2732259504-line-8)">&#160;GPS&#160;&#160;&#160;&#160;&#160;</text><text class="terminal-2732259504-r5" x="183" y="215.2" textLength="73.2" clip-path="url(#terminal-2732259504-line-8)">&#160;44&#160;&#160;&#160;</text><text class="terminal-2732259504-r5" x="256.2" y="215.2" textLength="61" clip-path="url(#terminal-2732259504-line-8)">&#160;300&#160;</text><text class="terminal-2732259504-r5" x="317.2" y="215.2" textLength="97.6" clip-path="url(#terminal-2732259504-line-8)">&#160;36&#160;&#160;&#160;&#160;&#160;</text><text class="terminal-2732259504-r5" x="414.8" y="215.2" textLength="73.2" clip-path="url(#terminal-2732259504-line-8)">&#160;yes&#160;&#160;</text><text class="terminal-2732259504-r5" x="488" y="215.2" textLength="97.6" clip-path="url(#terminal-2732259504-line-8)">&#160;ok&#160;&#160;&#160;&#160;&#160;</text><text class="terminal-2732259504-r1" x="1220" y="215.2" textLength="12.2" clip-path="url(#terminal-2732259504-line-8)">
</text><text class="terminal-2732259504-r5" x="12.2" y="239.6" textLength="61" clip-path="url(#terminal-2732259504-line-9)">&#160;326&#160;</text><text class="terminal-2732259504-r5" x="73.2" y="239.6" textLength="109.8" clip-path="url(#terminal-2732259504-line-9)">&#160;Galileo&#160;</text><text class="terminal-2732259504-r5" x="183" y="239.6" textLength="73.2" clip-path="url(#terminal-2732259504-line-9)">&#160;40&#160;&#160;&#160;</text><text class="terminal-2732259504-r5" x="256.2" y="239.6" textLength="61" clip-path="url(#terminal-2732259504-line-9)">&#160;270&#160;</text><text class="terminal-2732259504-r5" x="317.2" y="239.6" textLength="97.6" clip-path="url(#terminal-2732259504-line-9)">&#160;35&#160;&#160;&#160;&#160;&#160;</text><text class="terminal-2732259504-r5" x="414.8" y="239.6" textLength="73.2" clip-path="url(#terminal-2732259504-line-9)">&#160;yes&#160;&#160;</text><text class="terminal-2732259504-r5" x="488" y="239.6" textLength="97.6" clip-path="url(#terminal-2732259504-line-9)">&#160;ok&#160;&#160;&#160;&#160;&#160;</text><text class="terminal-2732259504-r1" x="1220" y="239.6" textLength="12.2" clip-path="url(#terminal-2732259504-line-9)">
</text><text class="terminal-2732259504-r5" x="12.2" y="264" textLength="61" clip-path="url(#terminal-2732259504-line-10)">&#160;23&#160;&#160;</text><text class="terminal-2732259504-r5" x="73.2" y="264" textLength="109.8" clip-path="url(#terminal-2732259504-line-10)">&#160;GPS&#160;&#160;&#160;&#160;&#160;</text><text class="terminal-2732259504-r5" x="183" y="264" textLength="73.2" clip-path="url(#terminal-2732259504-line-10)">&#160;35&#160;&#160;&#160;</text><text class="terminal-2732259504-r5" x="256.2" y="264" textLength="61" clip-path="url(#terminal-2732259504-line-10)">&#160;180&#160;</text><text class="terminal-2732259504-r5" x="317.2" y="264" textLength="97.6" clip-path="url(#terminal-2732259504-line-10)">&#160;33&#160;&#160;&#160;&#160;&#160;</text><text class="terminal-2732259504-r5" x="414.8" y="264" textLength="73.2" clip-path="url(#terminal-2732259504-line-10)">&#160;yes&#160;&#160;</text><text class="terminal-2732259504-r5" x="488" y="264" textLength="97.6" clip-path="url(#terminal-2732259504-line-10)">&#160;ok&#160;&#160;&#160;&#160;&#160;</text><text class="terminal-2732259504-r1" x="1220" y="264" textLength="12.2" clip-path="url(#terminal-2732259504-line-10)">
</text><text class="terminal-2732259504-r5" x="12.2" y="288.4" textLength="61" clip-path="url(#terminal-2732259504-line-11)">&#160;303&#160;</text><text class="terminal-2732259504-r5" x="73.2" y="288.4" textLength="109.8" clip-path="url(#terminal-2732259504-line-11)">&#160;Galileo&#160;</text><text class="terminal-2732259504-r5" x="183" y="288.4" textLength="73.2" clip-path="url(#terminal-2732259504-line-11)">&#160;28&#160;&#160;&#160;</text><text class="terminal-2732259504-r5" x="256.2" y="288.4" textLength="61" clip-path="url(#terminal-2732259504-line-11)">&#160;90&#160;&#160;</text><text class="terminal-2732259504-r5" x="317.2" y="288.4" textLength="97.6" clip-path="url(#terminal-2732259504-line-11)">&#160;31&#160;&#160;&#160;&#160;&#160;</text><text class="terminal-2732259504-r5" x="414.8" y="288.4" textLength="73.2" clip-path="url(#terminal-2732259504-line-11)">&#160;yes&#160;&#160;</text><text class="terminal-2732259504-r5" x="488" y="288.4" textLength="97.6" clip-path="url(#terminal-2732259504-line-11)">&#160;ok&#160;&#160;&#160;&#160;&#160;</text><text class="terminal-2732259504-r1" x="1220" y="288.4" textLength="12.2" clip-path="url(#terminal-2732259504-line-11)">
</text><text class="terminal-2732259504-r5" x="12.2" y="312.8" textLength="61" clip-path="url(#terminal-2732259504-line-12)">&#160;15&#160;&#160;</text><text class="terminal-2732259504-r5" x="73.2" y="312.8" textLength="109.8" clip-path="url(#terminal-2732259504-line-12)">&#160;GPS&#160;&#160;&#160;&#160;&#160;</text><text class="terminal-2732259504-r5" x="183" y="312.8" textLength="73.2" clip-path="url(#terminal-2732259504-line-12)">&#160;22&#160;&#160;&#160;</text><text class="terminal-2732259504-r5" x="256.2" y="312.8" textLength="61" clip-path="url(#terminal-2732259504-line-12)">&#160;60&#160;&#160;</text><text class="terminal-2732259504-r5" x="317.2" y="312.8" textLength="97.6" clip-path="url(#terminal-2732259504-line-12)">&#160;28&#160;&#160;&#160;&#160;&#160;</text><text class="terminal-2732259504-r5" x="414.8" y="312.8" textLength="73.2" clip-path="url(#terminal-2732259504-line-12)">&#160;yes&#160;&#160;</text><text class="terminal-2732259504-r5" x="488" y="312.8" textLength="97.6" clip-path="url(#terminal-2732259504-line-12)">&#160;ok&#160;&#160;&#160;&#160;&#160;</text><text class="terminal-2732259504-r1" x="1220" y="312.8" textLength="12.2" clip-path="url(#terminal-2732259504-line-12)">
</text><text class="terminal-2732259504-r5" x="12.2" y="337.2" textLength="61" clip-path="url(#terminal-2732259504-line-13)">&#160;133&#160;</text><text class="terminal-2732259504-r5" x="73.2" y="337.2" textLength="109.8" clip-path="url(#terminal-2732259504-line-13)">&#160;SBAS&#160;&#160;&#160;&#160;</text><text class="terminal-2732259504-r5" x="183" y="337.2" textLength="73.2" clip-path="url(#terminal-2732259504-line-13)">&#160;30&#160;&#160;&#160;</text><text class="terminal-2732259504-r5" x="256.2" y="337.2" textLength="61" clip-path="url(#terminal-2732259504-line-13)">&#160;200&#160;</text><text class="terminal-2732259504-r5" x="317.2" y="337.2" textLength="97.6" clip-path="url(#terminal-2732259504-line-13)">&#160;30&#160;&#160;&#160;&#160;&#160;</text><text class="terminal-2732259504-r5" x="488" y="337.2" textLength="97.6" clip-path="url(#terminal-2732259504-line-13)">&#160;ok&#160;&#160;&#160;&#160;&#160;</text><text class="terminal-2732259504-r1" x="1220" y="337.2" textLength="12.2" clip-path="url(#terminal-2732259504-line-13)">
</text><text class="terminal-2732259504-r5" x="12.2" y="361.6" textLength="61" clip-path="url(#terminal-2732259504-line-14)">&#160;29&#160;&#160;</text><text class="terminal-2732259504-r5" x="73.2" y="361.6" textLength="109.8" clip-path="url(#terminal-2732259504-line-14)">&#160;GPS&#160;&#160;&#160;&#160;&#160;</text><text class="terminal-2732259504-r5" x="183" y="361.6" textLength="73.2" clip-path="url(#terminal-2732259504-line-14)">&#160;12&#160;&#160;&#160;</text><text class="terminal-2732259504-r5" x="256.2" y="361.6" textLength="61" clip-path="url(#terminal-2732259504-line-14)">&#160;330&#160;</text><text class="terminal-2732259504-r5" x="317.2" y="361.6" textLength="97.6" clip-path="url(#terminal-2732259504-line-14)">&#160;21&#160;&#160;&#160;&#160;&#160;</text><text class="terminal-2732259504-r5" x="488" y="361.6" textLength="97.6" clip-path="url(#terminal-2732259504-line-14)">&#160;ok&#160;&#160;&#160;&#160;&#160;</text><text class="terminal-2732259504-r1" x="1220" y="361.6" textLength="12.2" clip-path="url(#terminal-2732259504-line-14)">
</text><text class="terminal-2732259504-r5" x="12.2" y="386" textLength="61" clip-path="url(#terminal-2732259504-line-15)">&#160;324&#160;</text><text class="terminal-2732259504-r5" x="73.2" y="386" textLength="109.8" clip-path="url(#terminal-2732259504-line-15)">&#160;Galileo&#160;</text><text class="terminal-2732259504-r5" x="183" y="386" textLength="73.2" clip-path="url(#terminal-2732259504-line-15)">&#160;8&#160;&#160;&#160;&#160;</text><text class="terminal-2732259504-r5" x="256.2" y="386" textLength="61" clip-path="url(#terminal-2732259504-line-15)">&#160;150&#160;</text><text class="terminal-2732259504-r5" x="317.2" y="386" textLength="97.6" clip-path="url(#terminal-2732259504-line-15)">&#160;19&#160;&#160;&#160;&#160;&#160;</text><text class="terminal-2732259504-r5" x="488" y="386" textLength="97.6" clip-path="url(#terminal-2732259504-line-15)">&#160;ok&#160;&#160;&#160;&#160;&#160;</text><text class="terminal-2732259504-r1" x="1220" y="386" textLength="12.2" clip-path="url(#terminal-2732259504-line-15)">
</text><text class="terminal-2732259504-r5" x="12.2" y="410.4" textLength="61" clip-path="url(#terminal-2732259504-line-16)">&#160;70&#160;&#160;</text><text class="terminal-2732259504-r5" x="73.2" y="410.4" textLength="109.8" clip-path="url(#terminal-2732259504-line-16)">&#160;GLONASS&#160;</text><text class="terminal-2732259504-r5" x="183" y="410.4" textLength="73.2" clip-path="url(#terminal-2732259504-line-16)">&#160;50&#160;&#160;&#160;</text><text class="terminal-2732259504-r5" x="256.2" y="410.4" textLength="61" clip-path="url(#terminal-2732259504-line-16)">&#160;100&#160;</text><text class="terminal-2732259504-r5" x="317.2" y="410.4" textLength="97.6" clip-path="url(#terminal-2732259504-line-16)">&#160;33&#160;&#160;&#160;&#160;&#160;</text><text class="terminal-2732259504-r5" x="488" y="410.4" textLength="97.6" clip-path="url(#terminal-2732259504-line-16)">&#160;ok&#160;&#160;&#160;&#160;&#160;</text><text class="terminal-2732259504-r1" x="1220" y="410.4" textLength="12.2" clip-path="url(#terminal-2732259504-line-16)">
</text><text class="terminal-2732259504-r5" x="12.2" y="434.8" textLength="61" clip-path="url(#terminal-2732259504-line-17)">&#160;81&#160;&#160;</text><text class="terminal-2732259504-r5" x="73.2" y="434.8" textLength="109.8" clip-path="url(#terminal-2732259504-line-17)">&#160;GLONASS&#160;</text><text class="terminal-2732259504-r5" x="183" y="434.8" textLength="73.2" clip-path="url(#terminal-2732259504-line-17)">&#160;20&#160;&#160;&#160;</text><text class="terminal-2732259504-r5" x="256.2" y="434.8" textLength="61" clip-path="url(#terminal-2732259504-line-17)">&#160;320&#160;</text><text class="terminal-2732259504-r5" x="317.2" y="434.8" textLength="97.6" clip-path="url(#terminal-2732259504-line-17)">&#160;25&#160;&#160;&#160;&#160;&#160;</text><text class="terminal-2732259504-r5" x="488" y="434.8" textLength="97.6" clip-path="url(#terminal-2732259504-line-17)">&#160;ok&#160;&#160;&#160;&#160;&#160;</text><text class="terminal-2732259504-r1" x="1220" y="434.8" textLength="12.2" clip-path="url(#terminal-2732259504-line-17)">
</text><text class="terminal-2732259504-r1" x="1220" y="459.2" textLength="12.2" clip-path="url(#terminal-2732259504-line-18)">
</text><text class="terminal-2732259504-r1" x="1220" y="483.6" textLength="12.2" clip-path="url(#terminal-2732259504-line-19)">
</text><text class="terminal-2732259504-r1" x="1220" y="508" textLength="12.2" clip-path="url(#terminal-2732259504-line-20)">
</text><text class="terminal-2732259504-r1" x="1220" y="532.4" textLength="12.2" clip-path="url(#terminal-2732259504-line-21)">
</text><text class="terminal-2732259504-r1" x="1220" y="556.8" textLength="12.2" clip-path="url(#terminal-2732259504-line-22)">
</text><text class="terminal-2732259504-r1" x="1220" y="581.2" textLength="12.2" clip-path="url(#terminal-2732259504-line-23)">
</text><text class="terminal-2732259504-r1" x="1220" y="605.6" textLength="12.2" clip-path="url(#terminal-2732259504-line-24)">
</text><text class="terminal-2732259504-r1" x="1220" y="630" textLength="12.2" clip-path="url(#terminal-2732259504-line-25)">
</text><text class="terminal-2732259504-r1" x="1220" y="654.4" textLength="12.2" clip-path="url(#terminal-2732259504-line-26)">
</text><text class="terminal-2732259504-r1" x="1220" y="678.8" textLength="12.2" clip-path="url(#terminal-2732259504-line-27)">
</text><text class="terminal-2732259504-r1" x="1220" y="703.2" textLength="12.2" clip-path="url(#terminal-2732259504-line-28)">
</text><text class="terminal-2732259504-r6" x="12.2" y="727.6" textLength="109.8" clip-path="url(#terminal-2732259504-line-29)">Esc:&#160;back</text>
    </g>
    </g>
</svg>
